# xmcd
#
# Track frame offsets:
#	150
#	20512
#	30837
#	50912
#	64107
#	78357
#	90537
#	110742
#	126817
#	144657
#	153490
#	160700
#	175270
#	186830
#	201800
#	218010
#	237282
#	244062
#	262600
#	284179
#
# Disc length: 3925 seconds
# Revision: 12
# Processed by: cddbd v1.5.2PL0 Copyright (c) Steve Scherf et al.
# Submitted via: dBpowerAMP V12.0
#
DISCID=180f5314
DTITLE=Various Artist - O Brother, Where Art Thou? (Music from a Film by Joel Coen and Ethan Coen)
DYEAR=2000
DGENRE=Bluegrass
TTITLE0=James Carter and the Prisoners - Po Lazarus
TTITLE1=Harry McLintock - Big Rock Candy Mountain
TTITLE2=Norman Blake - You Are My Sunshine
TTITLE3=Alison Krauss - Down To The River To Pray
TTITLE4=Soggy Bottom Boys, The - I Am a Man of Constant Sorrow
TTITLE5=Chris Thomas King - Hard Time Killing Floor Blues
TTITLE6=Norman Blake - I Am A Man Of Constant Sorrow
TTITLE7=Whites, The - Keep On The Sunny Side
TTITLE8=Alison Krauss and Gillian Welch - I'll Fly Away
TTITLE9=Emmylou Harris, Alison Krauss and Gillian Welch - Didn't Leave Nobody But The Baby
TTITLE10=Sarah, Hannah and Leah Peasall - In the Highways
TTITLE11=Cox Family, The - I Am Weary, Let Me Rest
TTITLE12=John Hartford - I Am A Man Of Constant Sorrow
TTITLE13=Ralph Stanley - O Death
TTITLE14=Soggy Bottom Boys, The - In The Jailhouse Now
TTITLE15=Soggy Bottom Boys, The - I Am a Man of Constant Sorrow
TTITLE16=John Hartford - Indian War Whoop
TTITLE17=Fairfield Four - Lonesome Valley
TTITLE18=Stanley Brothers, The - Angel Band
TTITLE19=DATA
EXTD=
EXTT0=
EXTT1=
EXTT2=
EXTT3=
EXTT4=
EXTT5=
EXTT6=
EXTT7=
EXTT8=
EXTT9=
EXTT10=
EXTT11=
EXTT12=
EXTT13=
EXTT14=
EXTT15=
EXTT16=
EXTT17=
EXTT18=
EXTT19=
PLAYORDER=
